<?xml version="1.0" encoding="utf-8"?><svg xmlns="http://www.w3.org/2000/svg" xmlns:xlink="http://www.w3.org/1999/xlink"><symbol viewBox="0 0 64 64" id="logo" xmlns="http://www.w3.org/2000/svg"><circle class="ast0" fill="#76C2AF" cx="32" cy="32" r="32"/><g class="ast1" opacity=".2"><path class="ast2" fill="#231F20" d="M42.5 44c-.7 0-1.3-.3-1.7-1-.6-.9-.3-2.2.7-2.8L51.6 34v-.2l-10.1-6.2c-.9-.6-1.2-1.8-.7-2.8.6-.9 1.8-1.2 2.8-.7l10.6 6.6.2.2c.8.8 1.2 1.9 1.2 3s-.4 2.2-1.2 3l-.2.2-10.6 6.6c-.4.2-.8.3-1.1.3zm-21 0c-.4 0-.7-.1-1-.3L9.9 37.1l-.2-.1c-.8-.8-1.2-1.9-1.2-3s.4-2.2 1.2-3l.2-.2 10.6-6.6c.9-.6 2.2-.3 2.8.7.6.9.3 2.2-.7 2.8l-10.1 6.2v.2l10.1 6.2c.9.6 1.2 1.8.7 2.8-.4.6-1.1.9-1.8.9z"/></g><g class="ast1" opacity=".2"><path class="ast2" fill="#231F20" d="M25.5 53c-.2 0-.5 0-.7-.1-1-.4-1.5-1.6-1.2-2.6l13-34c.4-1 1.6-1.5 2.6-1.2 1 .4 1.5 1.6 1.2 2.6l-13 34c-.3.8-1.1 1.3-1.9 1.3z"/></g><path class="ast3" fill="#FFF" d="M42.5 42c-.7 0-1.3-.3-1.7-1-.6-.9-.3-2.2.7-2.8L51.6 32v-.1l-10.1-6.2c-.9-.6-1.2-1.8-.7-2.8.6-.9 1.8-1.2 2.8-.7l10.6 6.6.2.2c1.6 1.6 1.6 4.3 0 6l-.2.2-10.6 6.6c-.4.1-.8.2-1.1.2zm-21 0c-.4 0-.7-.1-1-.3L9.9 35.1l-.2-.1c-1.6-1.6-1.6-4.3 0-6l.2-.2 10.6-6.6c.9-.6 2.2-.3 2.8.7.6.9.3 2.2-.7 2.8l-10.1 6.2v.1l10.1 6.2c.9.6 1.2 1.8.7 2.8-.4.7-1.1 1-1.8 1zM25.5 51c-.2 0-.5 0-.7-.1-1-.4-1.5-1.6-1.2-2.6l13-34c.4-1 1.6-1.5 2.6-1.2 1 .4 1.5 1.6 1.2 2.6l-13 34c-.3.8-1.1 1.3-1.9 1.3z"/></symbol><symbol viewBox="0 0 451 451" id="search" xmlns="http://www.w3.org/2000/svg"><path d="M447.05 428l-109.6-109.6c29.4-33.8 47.2-77.9 47.2-126.1C384.65 86.2 298.35 0 192.35 0 86.25 0 .05 86.3.05 192.3s86.3 192.3 192.3 192.3c48.2 0 92.3-17.8 126.1-47.2L428.05 447c2.6 2.6 6.1 4 9.5 4s6.9-1.3 9.5-4c5.2-5.2 5.2-13.8 0-19zM26.95 192.3c0-91.2 74.2-165.3 165.3-165.3 91.2 0 165.3 74.2 165.3 165.3s-74.1 165.4-165.3 165.4c-91.1 0-165.3-74.2-165.3-165.4z"/></symbol></svg>